# xmcd
#
# Track frame offsets:
#	150
#	25544
#	44762
#	65068
#	82605
#	98802
#	114870
#	134607
#	158300
#	176345
#	189022
#	203615
#	221713
#	240688
#
# Disc length: 3485 seconds
#
# Revision: 0
# Processed by: cddbd v1.5.2PL0 Copyright (c) Steve Scherf et al.
# Submitted via: SynApp - FreeCDDB Version: 2.3
#
DISCID=aa0d9b0e
DTITLE=JJ Cale and Eric Clapton - The Road To Escondido
DYEAR=2006
DGENRE=Blues
TTITLE0=Danger
TTITLE1=Heads In Georgia
TTITLE2=Missing Person
TTITLE3=When This War Is Over
TTITLE4=Sporting Life Blues
TTITLE5=Dead End Road
TTITLE6=It's Easy
TTITLE7=Hard To Thrill
TTITLE8=Anyway The Wind Blows
TTITLE9=Three Little Girls
TTITLE10=Don't Cry Sister
TTITLE11=Last Will And Testament
TTITLE12=Who Am I Telling You?
TTITLE13=Ride The River
EXTD=
EXTT0=
EXTT1=
EXTT2=
EXTT3=
EXTT4=
EXTT5=
EXTT6=
EXTT7=
EXTT8=
EXTT9=
EXTT10=
EXTT11=
EXTT12=
EXTT13=
PLAYORDER=
